<?xml version="1.0" encoding="UTF-8" standalone="no"?>
<svg
   xmlns:dc="http://purl.org/dc/elements/1.1/"
   xmlns:cc="http://creativecommons.org/ns#"
   xmlns:rdf="http://www.w3.org/1999/02/22-rdf-syntax-ns#"
   xmlns:svg="http://www.w3.org/2000/svg"
   xmlns="http://www.w3.org/2000/svg"
   xmlns:sodipodi="http://sodipodi.sourceforge.net/DTD/sodipodi-0.dtd"
   xmlns:inkscape="http://www.inkscape.org/namespaces/inkscape"
   aria-hidden="true"
   focusable="false"
   data-prefix="fas"
   data-icon="cat"
   class="svg-inline--fa fa-cat fa-w-16"
   role="img"
   viewBox="0 0 50 50"
   version="1.1"
   id="svg12"
   sodipodi:docname="logo.svg"
   width="50"
   height="50"
   inkscape:version="1.0.2 (e86c8708, 2021-01-15)">
  <metadata
     id="metadata18">
    <rdf:RDF>
      <cc:Work
         rdf:about="">
        <dc:format>image/svg+xml</dc:format>
        <dc:type
           rdf:resource="http://purl.org/dc/dcmitype/StillImage" />
        <dc:title></dc:title>
      </cc:Work>
    </rdf:RDF>
  </metadata>
  <defs
     id="defs16" />
  <sodipodi:namedview
     pagecolor="#ffffff"
     bordercolor="#666666"
     borderopacity="1"
     objecttolerance="10"
     gridtolerance="10"
     guidetolerance="10"
     inkscape:pageopacity="0"
     inkscape:pageshadow="2"
     inkscape:window-width="960"
     inkscape:window-height="949"
     id="namedview14"
     showgrid="false"
     inkscape:zoom="1.2003863"
     inkscape:cx="169.66886"
     inkscape:cy="54.160315"
     inkscape:window-x="1920"
     inkscape:window-y="25"
     inkscape:window-maximized="0"
     inkscape:current-layer="svg12"
     inkscape:document-rotation="0" />
  <path
     fill="currentColor"
     d="m 28.377935,16.573754 c -1.97071,0 -10.43164,0.19336 -15.87793,8.39355 v -8.39355 c 0,-5.16992 -4.20508,-9.3749995 -9.375,-9.3749995 -1.72559,0 -3.1250000987516,1.3994097 -3.1250000987516,3.1249995 0,1.72559 1.3994100987516,3.125 3.1250000987516,3.125 1.72265,0 3.125,1.40235 3.125,3.125 v 25 c 0,3.44727 2.80273,6.25 6.25,6.25 h 17.1875 c 0.86328,0 1.5625,-0.69922 1.5625,-1.5625 v -1.5625 c 0,-1.72559 -1.39941,-3.125 -3.125,-3.125 h -3.125 l 12.5,-9.375 v 14.0625 c 0,0.86328 0.69922,1.5625 1.5625,1.5625 h 3.125 c 0.86328,0 1.5625,-0.69922 1.5625,-1.5625 v -20.13086 c -1.00488,0.26075 -2.04004,0.44336 -3.125,0.44336 -6.03613,0 -11.08594,-4.30176 -12.24707,-10 z m 15.37207,-9.3749995 h -6.25 l -6.25,-6.25000005 V 14.073754 c 0,5.17773 4.19727,9.375 9.375,9.375 5.17773,0 9.375,-4.19727 9.375,-9.375 V 0.94875445 Z m -7.03125,7.8124995 c -0.86328,0 -1.5625,-0.69922 -1.5625,-1.5625 0,-0.86328 0.69922,-1.5625 1.5625,-1.5625 0.86328,0 1.5625,0.69922 1.5625,1.5625 0,0.86328 -0.69922,1.5625 -1.5625,1.5625 z m 7.8125,0 c -0.86328,0 -1.5625,-0.69922 -1.5625,-1.5625 0,-0.86328 0.69922,-1.5625 1.5625,-1.5625 0.86328,0 1.5625,0.69922 1.5625,1.5625 0,0.86328 -0.69922,1.5625 -1.5625,1.5625 z"
     id="path10"
     style="stroke-width:0.0976561;fill:#800080" />
</svg>
